# Blender v2.79 (sub 0) OBJ File: ''
# www.blender.org
o WingLeft
v 29.263201 -0.000035 217.778107
v 29.263201 22.933065 211.633194
v 29.263201 39.721268 194.845001
v 29.263201 45.866173 171.911804
v 29.263201 39.721275 148.978699
v 29.263201 22.933079 132.190506
v 29.263201 -0.000021 126.045601
v 29.263201 -22.933121 132.190506
v 29.263201 -39.721321 148.978806
v 29.263201 -45.866226 171.911896
v 29.263201 -39.721329 194.845001
v 29.263201 -22.933134 211.633194
v 147.899200 -32.692528 153.036896
v 147.899200 -37.750027 171.911896
v 147.899200 -18.875023 139.219406
v 147.899200 -0.000022 134.161896
v 147.899200 18.874977 139.219406
v 147.899200 32.692474 153.036804
v 147.899200 37.749973 171.911804
v 147.899200 32.692471 190.786804
v 147.899200 18.874968 204.604294
v 147.899200 -0.000034 209.661896
v 147.899200 -18.875032 204.604294
v 147.899200 -32.692532 190.786896
v 147.899200 43.978775 171.911804
v 147.899200 38.086670 193.901199
v 147.899200 21.989367 209.998596
v 147.899200 -0.000035 215.890594
v 147.899200 -21.989435 209.998596
v 147.899200 -38.086731 193.901199
v 147.899200 -43.978828 171.911896
v 147.899200 -38.086723 149.922501
v 147.899200 -21.989422 133.825195
v 147.899200 -0.000021 127.933098
v 147.899200 21.989380 133.825104
v 147.899200 38.086678 149.922501
v 169.699203 43.978775 171.911804
v 169.699203 38.086670 193.901199
v 169.699203 21.989367 209.998596
v 169.699203 -0.000035 215.890594
v 169.699203 -21.989435 209.998596
v 169.699203 -38.086731 193.901199
v 169.699203 -43.978828 171.911896
v 169.699203 -38.086723 149.922501
v 169.699203 -21.989422 133.825195
v 169.699203 -0.000021 127.933098
v 169.699203 21.989380 133.825104
v 169.699203 38.086678 149.922501
v 169.699203 49.181374 171.911819
v 169.699203 42.592369 196.502594
v 169.699203 24.590666 214.504196
v 169.699203 -0.000036 221.093307
v 169.699203 -24.590734 214.504196
v 169.699203 -42.592430 196.502594
v 169.699203 -49.181427 171.911880
v 169.699203 -42.592422 147.321198
v 169.699203 -24.590721 129.319504
v 169.699203 -0.000020 122.730400
v 169.699203 24.590679 129.319504
v 169.699203 42.592377 147.321106
v 200.368195 49.181374 171.911819
v 200.368195 42.592369 196.502594
v 200.368195 24.590666 214.504196
v 200.368195 -0.000036 221.093307
v 200.368195 -24.590734 214.504196
v 200.368195 -42.592430 196.502594
v 200.368195 -49.181427 171.911880
v 200.368195 -42.592422 147.321198
v 200.368195 -24.590721 129.319504
v 200.368195 -0.000020 122.730400
v 200.368195 24.590679 129.319504
v 200.368195 42.592377 147.321106
v 228.309006 -5.000017 101.781303
v 228.309006 -5.000040 242.042404
v 145.149200 -5.000038 230.255005
v 145.149200 -5.000019 113.568703
v 145.149200 4.999981 113.568703
v 228.309006 4.999983 101.781303
v 228.309006 4.999960 242.042404
v 145.149200 4.999962 230.255005
v 129.949203 -5.000032 200.267303
v 129.949203 4.999968 200.267303
v 129.949203 4.999977 143.556396
v 129.949203 -5.000023 143.556396
v 262.642792 65.204918 -72.103790
v 243.627594 65.204918 -72.103790
v 243.627594 95.866814 -72.103882
v 258.813812 107.310417 -72.103882
v 82.955704 313.035187 52.396149
v 94.345398 321.617889 52.396152
v 243.627594 -95.866814 718.927612
v 243.627594 -95.866844 261.356659
v 82.955704 -313.035217 199.832352
v 262.642792 -65.204918 718.927612
v 243.627594 -65.204918 718.927612
v 258.813812 -107.310417 718.927612
v 262.642792 65.205086 718.927612
v 258.813812 107.310585 718.927490
v 243.627594 95.866989 718.927612
v 243.627594 65.205086 718.927612
v 94.345398 -321.618042 199.832352
v 82.955704 -313.035187 52.396252
v 94.345398 -321.618011 52.396248
v 82.955704 313.035156 199.832245
v 94.345398 321.617981 199.832245
v 243.627594 -95.866982 -72.103813
v 243.627594 -65.205048 261.356598
v 243.627594 -65.205086 -72.103806
v 243.627594 65.204956 261.356598
v 243.627594 95.866852 261.356628
v 258.813812 107.310455 261.356628
v 262.642792 65.204956 261.356598
v 255.309006 -41.164814 96.559395
v 255.309006 41.164783 96.559311
v 288.961395 27.119986 95.411804
v 288.961395 -27.120016 95.411896
v 255.309006 102.911980 134.235611
v 288.961395 67.799980 133.661819
v 255.309006 102.911972 209.588120
v 270.808990 31.305861 247.264404
v 288.961395 27.119961 248.411896
v 288.961395 67.799973 210.161819
v 288.961395 67.799973 171.911819
v 255.309006 -102.912033 209.588181
v 255.309006 -102.912025 134.235580
v 288.961395 -67.800026 133.661880
v 288.961395 -67.800034 171.911880
v 288.961395 -67.800034 210.161880
v 303.110199 -13.630319 119.411903
v 303.110199 -14.040023 143.033096
v 303.110199 -36.000023 143.179703
v 303.110199 -14.040028 171.911896
v 303.110199 -36.000027 171.911896
v 303.110199 14.039977 143.033096
v 303.110199 13.630181 119.411903
v 303.110199 14.039972 171.911896
v 303.110199 35.999977 143.179703
v 303.110199 35.999973 171.911804
v 303.110199 -14.040032 200.790604
v 303.110199 -36.000034 200.643997
v 303.110199 -13.630237 224.411896
v 303.110199 14.039968 200.790604
v 303.110199 13.630263 224.411896
v 303.110199 35.999966 200.643997
v 288.961395 -27.120041 248.411896
v 270.808990 -31.305840 247.264404
v 288.961395 21.798082 106.311897
v 288.961395 -21.798218 106.311897
v 288.961395 55.482979 137.984512
v 288.961395 55.482975 171.911819
v 288.961395 55.482967 205.839218
v 288.961395 21.798162 237.511902
v 288.961395 -21.798138 237.511902
v 288.961395 -55.483036 205.839188
v 288.961395 -55.483028 171.911880
v 288.961395 -55.483025 137.984589
v 200.368195 52.014168 196.658920
v 200.368195 -52.014229 196.658890
v 200.368195 -11.106738 235.884705
v 200.368195 11.106662 235.884705
v 200.368195 -52.014221 146.724579
v 200.368195 52.014175 146.724518
v 200.368195 22.729382 118.643600
v 200.368195 -22.729420 118.643700
v 228.309006 -16.764841 261.364410
v 228.309006 16.764757 261.364288
v 223.368195 16.764757 261.364288
v 223.368195 -16.764841 261.364410
v 228.309006 16.764761 237.228806
v 223.368195 16.764761 237.228806
v 228.309006 78.511971 197.103622
v 223.368195 78.511971 197.103622
v 228.309006 78.511978 146.024323
v 223.368195 78.511978 146.024323
v 228.309006 34.308479 117.299507
v 223.368195 34.308479 117.299507
v 228.309006 -34.308517 117.299591
v 223.368195 -34.308517 117.299591
v 228.309006 -78.512024 146.024384
v 223.368195 -78.512024 146.024384
v 228.309006 -78.512032 197.103592
v 223.368195 -78.512032 197.103592
v 228.309006 -16.764837 237.228806
v 223.368195 -16.764837 237.228806
v 228.309006 -102.912025 134.235580
v 228.309006 -102.912033 209.588181
v 228.309006 102.911972 209.588120
v 228.309006 102.911980 134.235611
v 228.309006 41.164783 96.559311
v 228.309006 -41.164814 96.559395
v 228.309006 23.912661 247.264404
v 228.309006 -23.912640 247.264404
v 270.808990 -31.305845 285.764404
v 228.309006 -23.912645 285.764404
v 270.808990 31.305855 285.764313
v 228.309006 23.912655 285.764313
v 262.642792 -65.205086 -72.103806
v 258.813812 -107.310585 -72.103813
v 258.813812 -107.310547 261.356659
v 262.642792 -65.205048 261.356598
v 239.150299 82.778992 667.033813
v 243.627594 80.193993 667.033813
v 243.627594 75.023994 667.033813
v 239.150299 72.438995 667.033813
v 234.672897 75.023994 667.033813
v 234.672897 80.193993 667.033813
v 239.150299 82.779076 741.543884
v 234.672897 80.194077 741.543884
v 234.672897 75.024078 741.543884
v 239.150299 72.439079 741.543884
v 243.627594 75.024078 741.543884
v 243.627594 80.194077 741.543884
v 239.150299 82.778984 689.386902
v 234.672897 80.193985 689.386902
v 234.672897 75.023987 689.386902
v 239.150299 72.438988 689.386902
v 243.627594 75.023987 689.386902
v 243.627594 80.193985 689.386902
v 239.150299 66.038986 689.386902
v 234.672897 68.623985 689.386902
v 234.672897 68.623993 667.033813
v 239.150299 66.038994 667.033813
v 243.627594 68.623985 689.386902
v 243.627594 68.623993 667.033813
v 239.150299 -82.778908 667.033875
v 234.672897 -80.193909 667.033875
v 234.672897 -75.023911 667.033875
v 239.150299 -72.438904 667.033875
v 243.627594 -75.023911 667.033875
v 243.627594 -80.193909 667.033875
v 239.150299 -82.778923 741.543884
v 243.627594 -80.193924 741.543884
v 243.627594 -75.023926 741.543884
v 239.150299 -72.438919 741.543884
v 234.672897 -75.023926 741.543884
v 234.672897 -80.193924 741.543884
v 234.672897 -80.193916 689.386902
v 239.150299 -82.778915 689.386902
v 234.672897 -75.023918 689.386902
v 239.150299 -72.438911 689.386902
v 243.627594 -75.023918 689.386902
v 243.627594 -80.193916 689.386902
v 239.150299 -66.038918 689.386902
v 234.672897 -68.623917 689.386902
v 234.672897 -68.623909 667.033875
v 239.150299 -66.038910 667.033875
v 243.627594 -68.623917 689.386902
v 243.627594 -68.623909 667.033875
vn -1.0000 0.0000 0.0000
vn 0.0659 -0.9638 -0.2583
vn 0.0659 -0.7056 -0.7056
vn 0.0659 -0.2583 -0.9638
vn 0.0659 0.2583 -0.9638
vn 0.0659 0.7056 -0.7056
vn 0.0659 0.9638 -0.2583
vn 0.0659 0.9638 0.2583
vn 0.0659 0.7056 0.7056
vn 0.0659 0.2583 0.9638
vn 0.0659 -0.2583 0.9638
vn 0.0659 -0.7056 0.7056
vn 0.0659 -0.9638 0.2583
vn 0.0000 0.9659 0.2588
vn 0.0000 0.7071 0.7071
vn 0.0000 0.2588 0.9659
vn 0.0000 -0.2588 0.9659
vn 0.0000 -0.7071 0.7071
vn 0.0000 -0.9659 0.2588
vn 0.0000 -0.9659 -0.2588
vn 0.0000 -0.7071 -0.7071
vn 0.0000 -0.2588 -0.9659
vn 0.0000 0.2588 -0.9659
vn 0.0000 0.7071 -0.7071
vn 0.0000 0.9659 -0.2588
vn 0.0000 -1.0000 -0.0000
vn -0.1403 0.0000 -0.9901
vn -0.1403 0.0000 0.9901
vn 0.0000 1.0000 0.0000
vn -0.8920 0.0000 0.4521
vn -0.8920 0.0000 -0.4521
vn 0.0000 -0.0000 -1.0000
vn -0.2519 0.3343 -0.9082
vn -0.8039 0.5948 -0.0000
vn 0.0000 0.0000 1.0000
vn -0.5339 -0.7084 0.4616
vn -0.6018 -0.7986 0.0000
vn -0.6018 0.7986 0.0000
vn -0.8039 -0.5948 0.0000
vn 0.9959 0.0906 -0.0000
vn 0.7933 0.6088 -0.0000
vn -0.5339 0.7084 0.4616
vn -0.5339 0.7085 0.4616
vn -0.0341 -0.0000 -0.9994
vn 0.4675 0.4604 -0.7546
vn 0.2526 0.6628 -0.7049
vn 0.0538 0.4741 0.8789
vn 0.5747 0.5606 0.5962
vn 0.7220 0.6919 0.0000
vn 0.7220 -0.6919 -0.0000
vn 1.0000 -0.0000 0.0000
vn 0.1850 -0.5119 -0.8389
vn 0.5747 -0.5606 -0.5962
vn 0.5747 -0.5606 0.5962
vn 0.0538 -0.4741 0.8789
vn 0.7306 0.4677 0.4974
vn 0.7819 0.4539 0.4272
vn 0.6794 0.0000 0.7338
vn 0.7710 -0.4362 0.4639
vn 0.7258 -0.5010 0.4715
vn 0.8091 -0.5876 -0.0000
vn 0.7306 -0.4677 -0.4975
vn 0.7819 -0.4539 -0.4272
vn 0.6794 0.0000 -0.7338
vn 0.7710 0.4362 -0.4639
vn 0.7258 0.5010 -0.4715
vn 0.8091 0.5876 0.0000
vn 0.0000 0.5449 0.8385
vn 0.0000 0.5449 -0.8385
vn 0.0000 -0.5449 -0.8385
vn 0.0000 -0.5449 0.8385
vn -0.7552 0.6555 0.0000
vn -0.3076 0.5185 -0.7978
vn -0.6338 0.5354 -0.5583
vn -0.0583 -0.0000 -0.9983
vn -0.5469 -0.4562 -0.7020
vn -0.3638 -0.6447 -0.6723
vn -0.7552 -0.6555 -0.0000
vn -0.1801 -0.5360 0.8248
vn -0.6300 -0.5375 0.5605
vn -0.0583 0.0000 0.9983
vn -0.5414 0.4581 0.7050
vn -0.2078 0.6770 0.7060
vn 0.0000 0.5209 -0.8536
vn 0.0000 -0.5209 -0.8536
vn -0.0784 0.4509 0.8891
vn 0.0000 0.4305 0.9026
vn 0.0000 -0.4305 0.9026
vn -0.0784 -0.4509 0.8891
vn -0.1714 -0.9852 -0.0000
vn -0.1714 0.9852 0.0000
vn -0.0631 0.0000 0.9980
vn -0.2519 -0.3343 -0.9082
vn 0.7933 -0.6088 0.0000
vn 0.9959 -0.0906 0.0000
vn -0.5000 0.8660 -0.0000
vn -0.5000 -0.8660 0.0000
vn 0.5000 -0.8660 0.0000
vn 0.5000 0.8660 -0.0000
s off
f 1//1 2//1 3//1
f 1//1 3//1 4//1
f 1//1 4//1 5//1
f 1//1 5//1 6//1
f 1//1 6//1 7//1
f 1//1 7//1 8//1
f 1//1 8//1 9//1
f 1//1 9//1 10//1
f 1//1 10//1 11//1
f 1//1 11//1 12//1
f 10//2 9//2 13//2
f 13//2 14//2 10//2
f 9//3 8//3 15//3
f 15//3 13//3 9//3
f 8//4 7//4 16//4
f 16//4 15//4 8//4
f 7//5 6//5 17//5
f 17//5 16//5 7//5
f 6//6 5//6 18//6
f 18//6 17//6 6//6
f 5//7 4//7 19//7
f 19//7 18//7 5//7
f 4//8 3//8 20//8
f 20//8 19//8 4//8
f 2//9 21//9 20//9
f 20//9 3//9 2//9
f 2//10 1//10 22//10
f 22//10 21//10 2//10
f 1//11 12//11 23//11
f 23//11 22//11 1//11
f 12//12 11//12 24//12
f 24//12 23//12 12//12
f 11//13 10//13 14//13
f 14//13 24//13 11//13
f 25//1 19//1 20//1
f 20//1 26//1 25//1
f 26//1 20//1 21//1
f 21//1 27//1 26//1
f 28//1 27//1 21//1
f 21//1 22//1 28//1
f 28//1 22//1 23//1
f 23//1 29//1 28//1
f 29//1 23//1 24//1
f 24//1 30//1 29//1
f 31//1 30//1 24//1
f 24//1 14//1 31//1
f 31//1 14//1 13//1
f 13//1 32//1 31//1
f 32//1 13//1 15//1
f 15//1 33//1 32//1
f 34//1 33//1 15//1
f 15//1 16//1 34//1
f 34//1 16//1 17//1
f 17//1 35//1 34//1
f 35//1 17//1 18//1
f 18//1 36//1 35//1
f 25//1 36//1 18//1
f 18//1 19//1 25//1
f 37//14 25//14 26//14
f 26//14 38//14 37//14
f 39//15 38//15 26//15
f 26//15 27//15 39//15
f 39//16 27//16 28//16
f 28//16 40//16 39//16
f 40//17 28//17 29//17
f 29//17 41//17 40//17
f 41//18 29//18 30//18
f 30//18 42//18 41//18
f 42//19 30//19 31//19
f 31//19 43//19 42//19
f 43//20 31//20 32//20
f 32//20 44//20 43//20
f 44//21 32//21 33//21
f 33//21 45//21 44//21
f 45//22 33//22 34//22
f 34//22 46//22 45//22
f 46//23 34//23 35//23
f 35//23 47//23 46//23
f 47//24 35//24 36//24
f 36//24 48//24 47//24
f 48//25 36//25 25//25
f 25//25 37//25 48//25
f 49//1 37//1 38//1
f 38//1 50//1 49//1
f 50//1 38//1 39//1
f 39//1 51//1 50//1
f 52//1 51//1 39//1
f 39//1 40//1 52//1
f 52//1 40//1 41//1
f 41//1 53//1 52//1
f 53//1 41//1 42//1
f 42//1 54//1 53//1
f 55//1 54//1 42//1
f 42//1 43//1 55//1
f 55//1 43//1 44//1
f 44//1 56//1 55//1
f 56//1 44//1 45//1
f 45//1 57//1 56//1
f 58//1 57//1 45//1
f 45//1 46//1 58//1
f 58//1 46//1 47//1
f 47//1 59//1 58//1
f 59//1 47//1 48//1
f 48//1 60//1 59//1
f 49//1 60//1 48//1
f 48//1 37//1 49//1
f 61//14 49//14 50//14
f 50//14 62//14 61//14
f 62//15 50//15 51//15
f 51//15 63//15 62//15
f 52//16 64//16 63//16
f 63//16 51//16 52//16
f 64//17 52//17 53//17
f 53//17 65//17 64//17
f 65//18 53//18 54//18
f 54//18 66//18 65//18
f 66//19 54//19 55//19
f 55//19 67//19 66//19
f 67//20 55//20 56//20
f 56//20 68//20 67//20
f 68//21 56//21 57//21
f 57//21 69//21 68//21
f 69//22 57//22 58//22
f 58//22 70//22 69//22
f 70//23 58//23 59//23
f 59//23 71//23 70//23
f 71//24 59//24 60//24
f 60//24 72//24 71//24
f 72//25 60//25 49//25
f 49//25 61//25 72//25
f 73//26 74//26 75//26
f 75//26 76//26 73//26
f 77//27 78//27 73//27
f 73//27 76//27 77//27
f 79//28 80//28 75//28
f 75//28 74//28 79//28
f 79//29 78//29 77//29
f 77//29 80//29 79//29
f 81//30 75//30 80//30
f 80//30 82//30 81//30
f 77//29 83//29 82//29
f 82//29 80//29 77//29
f 83//31 77//31 76//31
f 76//31 84//31 83//31
f 75//26 81//26 84//26
f 84//26 76//26 75//26
f 85//32 86//32 87//32
f 87//32 88//32 85//32
f 88//33 87//33 89//33
f 89//33 90//33 88//33
f 91//34 92//34 93//34
f 94//35 95//35 91//35
f 91//35 96//35 94//35
f 97//35 98//35 99//35
f 99//35 100//35 97//35
f 96//36 91//36 93//36
f 93//36 101//36 96//36
f 93//37 102//37 103//37
f 103//37 101//37 93//37
f 89//38 104//38 105//38
f 105//38 90//38 89//38
f 106//1 92//1 107//1
f 107//1 108//1 106//1
f 86//1 109//1 110//1
f 110//1 87//1 86//1
f 92//34 106//34 102//34
f 102//34 93//34 92//34
f 104//39 110//39 99//39
f 88//40 111//40 112//40
f 112//40 85//40 88//40
f 111//41 88//41 90//41
f 90//41 105//41 111//41
f 97//40 112//40 111//40
f 111//40 98//40 97//40
f 98//41 111//41 105//41
f 95//1 107//1 92//1
f 92//1 91//1 95//1
f 87//39 110//39 104//39
f 104//39 89//39 87//39
f 99//1 110//1 109//1
f 109//1 100//1 99//1
f 98//42 105//42 104//42
f 104//43 99//43 98//43
f 97//26 100//26 109//26
f 109//26 112//26 97//26
f 113//44 114//44 115//44
f 115//44 116//44 113//44
f 114//45 117//45 118//45
f 118//46 115//46 114//46
f 119//47 120//47 121//47
f 121//48 122//48 119//48
f 117//49 119//49 122//49
f 117//49 122//49 123//49
f 117//49 123//49 118//49
f 124//50 125//50 126//50
f 124//50 126//50 127//50
f 124//50 127//50 128//50
f 129//51 130//51 131//51
f 130//51 132//51 133//51
f 133//51 131//51 130//51
f 134//51 130//51 129//51
f 129//51 135//51 134//51
f 134//51 136//51 132//51
f 132//51 130//51 134//51
f 137//51 134//51 135//51
f 136//51 134//51 137//51
f 137//51 138//51 136//51
f 125//52 113//52 116//52
f 116//53 126//53 125//53
f 132//51 139//51 140//51
f 140//51 133//51 132//51
f 139//51 141//51 140//51
f 136//51 142//51 139//51
f 139//51 132//51 136//51
f 142//51 143//51 141//51
f 141//51 139//51 142//51
f 142//51 136//51 138//51
f 138//51 144//51 142//51
f 144//51 143//51 142//51
f 124//54 128//54 145//54
f 145//55 146//55 124//55
f 116//51 115//51 147//51
f 147//51 148//51 116//51
f 118//51 149//51 147//51
f 147//51 115//51 118//51
f 118//51 123//51 150//51
f 150//51 149//51 118//51
f 123//51 122//51 151//51
f 151//51 150//51 123//51
f 122//51 121//51 152//51
f 152//51 151//51 122//51
f 121//51 145//51 153//51
f 153//51 152//51 121//51
f 128//51 154//51 153//51
f 153//51 145//51 128//51
f 128//51 127//51 155//51
f 155//51 154//51 128//51
f 127//51 126//51 156//51
f 156//51 155//51 127//51
f 126//51 116//51 148//51
f 148//51 156//51 126//51
f 151//56 152//56 143//56
f 143//57 144//57 151//57
f 152//58 153//58 141//58
f 141//58 143//58 152//58
f 153//59 154//59 140//59
f 140//60 141//60 153//60
f 154//61 155//61 133//61
f 133//61 140//61 154//61
f 155//61 156//61 131//61
f 131//61 133//61 155//61
f 156//62 148//62 129//62
f 129//63 131//63 156//63
f 148//64 147//64 135//64
f 135//64 129//64 148//64
f 147//65 149//65 137//65
f 137//66 135//66 147//66
f 149//67 150//67 138//67
f 138//67 137//67 149//67
f 150//67 151//67 144//67
f 144//67 138//67 150//67
f 107//1 109//1 86//1
f 86//1 108//1 107//1
f 157//1 158//1 159//1
f 159//1 160//1 157//1
f 161//1 162//1 163//1
f 163//1 164//1 161//1
f 158//1 157//1 162//1
f 162//1 161//1 158//1
f 165//35 166//35 167//35
f 167//35 168//35 165//35
f 166//29 169//29 170//29
f 170//29 167//29 166//29
f 169//68 171//68 172//68
f 172//68 170//68 169//68
f 171//29 173//29 174//29
f 174//29 172//29 171//29
f 173//69 175//69 176//69
f 176//69 174//69 173//69
f 175//32 177//32 178//32
f 178//32 176//32 175//32
f 177//70 179//70 180//70
f 180//70 178//70 177//70
f 179//26 181//26 182//26
f 182//26 180//26 179//26
f 181//71 183//71 184//71
f 184//71 182//71 181//71
f 183//26 165//26 168//26
f 168//26 184//26 183//26
f 172//72 174//72 162//72
f 162//72 157//72 172//72
f 174//73 176//73 163//73
f 163//74 162//74 174//74
f 176//75 178//75 164//75
f 164//75 163//75 176//75
f 178//76 180//76 161//76
f 161//77 164//77 178//77
f 180//78 182//78 158//78
f 158//78 161//78 180//78
f 182//79 184//79 159//79
f 159//80 158//80 182//80
f 184//81 170//81 160//81
f 160//81 159//81 184//81
f 170//82 172//82 157//82
f 157//83 160//83 170//83
f 185//26 125//26 124//26
f 124//26 186//26 185//26
f 187//29 119//29 117//29
f 117//29 188//29 187//29
f 188//84 117//84 114//84
f 114//84 189//84 188//84
f 189//32 114//32 113//32
f 113//32 190//32 189//32
f 190//85 113//85 125//85
f 125//85 185//85 190//85
f 191//86 120//86 119//86
f 119//87 187//87 191//87
f 192//88 186//88 124//88
f 124//89 146//89 192//89
f 192//90 146//90 193//90
f 193//90 194//90 192//90
f 193//35 195//35 196//35
f 196//35 194//35 193//35
f 196//91 195//91 120//91
f 120//91 191//91 196//91
f 185//1 186//1 181//1
f 181//1 179//1 185//1
f 188//1 189//1 175//1
f 175//1 173//1 188//1
f 192//1 194//1 165//1
f 165//1 183//1 192//1
f 194//1 196//1 166//1
f 166//1 165//1 194//1
f 196//1 191//1 169//1
f 169//1 166//1 196//1
f 187//1 171//1 169//1
f 169//1 191//1 187//1
f 187//1 188//1 173//1
f 173//1 171//1 187//1
f 186//1 192//1 183//1
f 183//1 181//1 186//1
f 189//1 190//1 177//1
f 177//1 175//1 189//1
f 185//1 179//1 177//1
f 177//1 190//1 185//1
f 193//51 146//51 120//51
f 120//51 195//51 193//51
f 120//92 146//92 145//92
f 145//92 121//92 120//92
f 197//32 198//32 106//32
f 106//32 108//32 197//32
f 198//93 103//93 102//93
f 102//93 106//93 198//93
f 198//94 199//94 101//94
f 101//94 103//94 198//94
f 101//94 199//94 96//94
f 96//95 199//95 200//95
f 200//95 94//95 96//95
f 197//95 200//95 199//95
f 199//95 198//95 197//95
f 94//29 200//29 107//29
f 107//29 95//29 94//29
f 85//32 197//32 108//32
f 108//32 86//32 85//32
f 197//51 85//51 112//51
f 112//51 200//51 197//51
f 107//35 200//35 112//35
f 112//35 109//35 107//35
f 184//1 168//1 167//1
f 167//1 170//1 184//1
f 201//32 202//32 203//32
f 201//32 203//32 204//32
f 201//32 204//32 205//32
f 201//32 205//32 206//32
f 207//35 208//35 209//35
f 207//35 209//35 210//35
f 207//35 210//35 211//35
f 207//35 211//35 212//35
f 207//96 213//96 214//96
f 214//96 208//96 207//96
f 213//96 201//96 206//96
f 206//96 214//96 213//96
f 208//1 214//1 215//1
f 215//1 209//1 208//1
f 214//1 206//1 205//1
f 205//1 215//1 214//1
f 209//97 215//97 216//97
f 216//97 210//97 209//97
f 210//98 216//98 217//98
f 217//98 211//98 210//98
f 211//51 217//51 218//51
f 218//51 212//51 211//51
f 217//51 203//51 202//51
f 202//51 218//51 217//51
f 212//99 218//99 213//99
f 213//99 207//99 212//99
f 218//99 202//99 201//99
f 201//99 213//99 218//99
f 219//35 216//35 215//35
f 215//35 220//35 219//35
f 220//1 215//1 205//1
f 205//1 221//1 220//1
f 221//32 205//32 204//32
f 204//32 222//32 221//32
f 223//35 217//35 216//35
f 216//35 219//35 223//35
f 222//32 204//32 203//32
f 203//32 224//32 222//32
f 224//51 203//51 217//51
f 217//51 223//51 224//51
f 220//97 221//97 222//97
f 222//97 219//97 220//97
f 219//98 222//98 224//98
f 224//98 223//98 219//98
f 225//32 226//32 227//32
f 225//32 227//32 228//32
f 225//32 228//32 229//32
f 225//32 229//32 230//32
f 231//35 232//35 233//35
f 231//35 233//35 234//35
f 231//35 234//35 235//35
f 231//35 235//35 236//35
f 231//97 236//97 237//97
f 237//97 238//97 231//97
f 238//97 237//97 226//97
f 226//97 225//97 238//97
f 236//1 235//1 239//1
f 239//1 237//1 236//1
f 237//1 239//1 227//1
f 227//1 226//1 237//1
f 235//96 234//96 240//96
f 240//96 239//96 235//96
f 234//99 233//99 241//99
f 241//99 240//99 234//99
f 233//51 232//51 242//51
f 242//51 241//51 233//51
f 241//51 242//51 230//51
f 230//51 229//51 241//51
f 232//98 231//98 238//98
f 238//98 242//98 232//98
f 242//98 238//98 225//98
f 225//98 230//98 242//98
f 243//35 244//35 239//35
f 239//35 240//35 243//35
f 244//1 245//1 227//1
f 227//1 239//1 244//1
f 245//32 246//32 228//32
f 228//32 227//32 245//32
f 247//35 243//35 240//35
f 240//35 241//35 247//35
f 246//32 248//32 229//32
f 229//32 228//32 246//32
f 248//51 247//51 241//51
f 241//51 229//51 248//51
f 244//96 243//96 246//96
f 246//96 245//96 244//96
f 243//99 247//99 248//99
f 248//99 246//99 243//99
